<mxfile host="Electron" modified="2023-08-17T06:07:27.225Z" agent="Mozilla/5.0 (Windows NT 10.0; Win64; x64) AppleWebKit/537.36 (KHTML, like Gecko) draw.io/21.6.5 Chrome/114.0.5735.243 Electron/25.3.1 Safari/537.36" etag="ctFyEIBjtKD4tZva9aJ_" version="21.6.5" type="device">
  <diagram name="Page-1" id="NTjiGH4Cz_g98eemZZYS">
    <mxGraphModel dx="1457" dy="989" grid="1" gridSize="10" guides="1" tooltips="1" connect="1" arrows="1" fold="1" page="1" pageScale="1" pageWidth="1100" pageHeight="850" math="0" shadow="0">
      <root>
        <mxCell id="0" />
        <mxCell id="1" parent="0" />
        <mxCell id="1DaiOdLd6T580_-Mj7Hy-2" value="docker image" style="rounded=0;whiteSpace=wrap;html=1;align=right;verticalAlign=bottom;fillColor=none;dashed=1;" parent="1" vertex="1">
          <mxGeometry x="310" y="370" width="700" height="180" as="geometry" />
        </mxCell>
        <mxCell id="1DaiOdLd6T580_-Mj7Hy-17" style="edgeStyle=orthogonalEdgeStyle;rounded=0;orthogonalLoop=1;jettySize=auto;html=1;entryX=1;entryY=0.5;entryDx=0;entryDy=0;startArrow=classic;startFill=1;" parent="1" target="1DaiOdLd6T580_-Mj7Hy-13" edge="1">
          <mxGeometry relative="1" as="geometry">
            <mxPoint x="350" y="455" as="sourcePoint" />
          </mxGeometry>
        </mxCell>
        <mxCell id="1DaiOdLd6T580_-Mj7Hy-8" value="nginx" style="rounded=0;whiteSpace=wrap;html=1;verticalAlign=bottom;align=right;" parent="1" vertex="1">
          <mxGeometry x="500" y="410" width="120" height="90" as="geometry" />
        </mxCell>
        <mxCell id="1DaiOdLd6T580_-Mj7Hy-4" style="edgeStyle=orthogonalEdgeStyle;rounded=0;orthogonalLoop=1;jettySize=auto;html=1;exitX=0.5;exitY=1;exitDx=0;exitDy=0;" parent="1" edge="1">
          <mxGeometry relative="1" as="geometry">
            <mxPoint x="625" y="500" as="sourcePoint" />
            <mxPoint x="625" y="500" as="targetPoint" />
          </mxGeometry>
        </mxCell>
        <mxCell id="1DaiOdLd6T580_-Mj7Hy-19" style="edgeStyle=orthogonalEdgeStyle;rounded=0;orthogonalLoop=1;jettySize=auto;html=1;entryX=0;entryY=0.5;entryDx=0;entryDy=0;startArrow=classic;startFill=1;" parent="1" source="1DaiOdLd6T580_-Mj7Hy-5" target="1DaiOdLd6T580_-Mj7Hy-7" edge="1">
          <mxGeometry relative="1" as="geometry" />
        </mxCell>
        <mxCell id="1DaiOdLd6T580_-Mj7Hy-5" value="venv" style="rounded=0;whiteSpace=wrap;html=1;verticalAlign=bottom;align=right;" parent="1" vertex="1">
          <mxGeometry x="650" y="410" width="120" height="90" as="geometry" />
        </mxCell>
        <mxCell id="1DaiOdLd6T580_-Mj7Hy-6" value="deployed frontend" style="text;html=1;strokeColor=none;fillColor=none;align=center;verticalAlign=middle;whiteSpace=wrap;rounded=0;fontSize=14;" parent="1" vertex="1">
          <mxGeometry x="530" y="440" width="60" height="30" as="geometry" />
        </mxCell>
        <mxCell id="1DaiOdLd6T580_-Mj7Hy-30" style="edgeStyle=orthogonalEdgeStyle;rounded=0;orthogonalLoop=1;jettySize=auto;html=1;entryX=0.5;entryY=1;entryDx=0;entryDy=0;startArrow=classic;startFill=1;" parent="1" source="1DaiOdLd6T580_-Mj7Hy-7" target="1DaiOdLd6T580_-Mj7Hy-28" edge="1">
          <mxGeometry relative="1" as="geometry" />
        </mxCell>
        <mxCell id="1DaiOdLd6T580_-Mj7Hy-7" value="venv" style="rounded=0;whiteSpace=wrap;html=1;verticalAlign=bottom;align=right;" parent="1" vertex="1">
          <mxGeometry x="850" y="410" width="120" height="90" as="geometry" />
        </mxCell>
        <mxCell id="1DaiOdLd6T580_-Mj7Hy-9" value="interpreter service" style="text;html=1;strokeColor=none;fillColor=none;align=center;verticalAlign=middle;whiteSpace=wrap;rounded=0;fontSize=14;" parent="1" vertex="1">
          <mxGeometry x="680" y="440" width="60" height="30" as="geometry" />
        </mxCell>
        <mxCell id="1DaiOdLd6T580_-Mj7Hy-10" value="ipython" style="text;html=1;strokeColor=none;fillColor=none;align=center;verticalAlign=middle;whiteSpace=wrap;rounded=0;" parent="1" vertex="1">
          <mxGeometry x="880" y="500" width="60" height="30" as="geometry" />
        </mxCell>
        <mxCell id="1DaiOdLd6T580_-Mj7Hy-15" style="edgeStyle=orthogonalEdgeStyle;rounded=0;orthogonalLoop=1;jettySize=auto;html=1;entryX=0.5;entryY=0;entryDx=0;entryDy=0;startArrow=classic;startFill=1;" parent="1" source="1DaiOdLd6T580_-Mj7Hy-11" target="1DaiOdLd6T580_-Mj7Hy-5" edge="1">
          <mxGeometry relative="1" as="geometry" />
        </mxCell>
        <mxCell id="1DaiOdLd6T580_-Mj7Hy-16" style="edgeStyle=orthogonalEdgeStyle;rounded=0;orthogonalLoop=1;jettySize=auto;html=1;entryX=0.5;entryY=0;entryDx=0;entryDy=0;startArrow=classic;startFill=1;" parent="1" source="1DaiOdLd6T580_-Mj7Hy-11" target="1DaiOdLd6T580_-Mj7Hy-8" edge="1">
          <mxGeometry relative="1" as="geometry" />
        </mxCell>
        <mxCell id="1DaiOdLd6T580_-Mj7Hy-11" value="browser" style="rounded=0;whiteSpace=wrap;html=1;verticalAlign=bottom;align=right;" parent="1" vertex="1">
          <mxGeometry x="500" y="210" width="120" height="90" as="geometry" />
        </mxCell>
        <mxCell id="1DaiOdLd6T580_-Mj7Hy-12" value="user interface" style="text;html=1;strokeColor=none;fillColor=none;align=center;verticalAlign=middle;whiteSpace=wrap;rounded=0;fontSize=14;" parent="1" vertex="1">
          <mxGeometry x="530" y="240" width="60" height="30" as="geometry" />
        </mxCell>
        <mxCell id="1DaiOdLd6T580_-Mj7Hy-13" value="" style="rounded=0;whiteSpace=wrap;html=1;verticalAlign=bottom;align=right;" parent="1" vertex="1">
          <mxGeometry x="130" y="410" width="120" height="90" as="geometry" />
        </mxCell>
        <mxCell id="1DaiOdLd6T580_-Mj7Hy-14" value="large language model" style="text;html=1;strokeColor=none;fillColor=none;align=center;verticalAlign=middle;whiteSpace=wrap;rounded=0;fontSize=14;" parent="1" vertex="1">
          <mxGeometry x="160" y="440" width="60" height="30" as="geometry" />
        </mxCell>
        <mxCell id="1DaiOdLd6T580_-Mj7Hy-20" value="std. http" style="text;html=1;strokeColor=none;fillColor=none;align=left;verticalAlign=middle;whiteSpace=wrap;rounded=0;" parent="1" vertex="1">
          <mxGeometry x="570" y="330" width="40" height="30" as="geometry" />
        </mxCell>
        <mxCell id="1DaiOdLd6T580_-Mj7Hy-21" value="API" style="text;html=1;strokeColor=none;fillColor=none;align=center;verticalAlign=middle;whiteSpace=wrap;rounded=0;" parent="1" vertex="1">
          <mxGeometry x="250" y="430" width="70" height="30" as="geometry" />
        </mxCell>
        <mxCell id="1DaiOdLd6T580_-Mj7Hy-22" value="websocket" style="text;html=1;strokeColor=none;fillColor=none;align=center;verticalAlign=middle;whiteSpace=wrap;rounded=0;" parent="1" vertex="1">
          <mxGeometry x="610" y="230" width="120" height="30" as="geometry" />
        </mxCell>
        <mxCell id="1DaiOdLd6T580_-Mj7Hy-23" value="os run" style="text;html=1;strokeColor=none;fillColor=none;align=center;verticalAlign=middle;whiteSpace=wrap;rounded=0;" parent="1" vertex="1">
          <mxGeometry x="780" y="430" width="60" height="30" as="geometry" />
        </mxCell>
        <mxCell id="1DaiOdLd6T580_-Mj7Hy-25" value="Next.js" style="text;html=1;strokeColor=none;fillColor=none;align=center;verticalAlign=middle;whiteSpace=wrap;rounded=0;" parent="1" vertex="1">
          <mxGeometry x="530" y="500" width="60" height="30" as="geometry" />
        </mxCell>
        <mxCell id="1DaiOdLd6T580_-Mj7Hy-26" value="FastAPI" style="text;html=1;strokeColor=none;fillColor=none;align=center;verticalAlign=middle;whiteSpace=wrap;rounded=0;" parent="1" vertex="1">
          <mxGeometry x="680" y="500" width="60" height="30" as="geometry" />
        </mxCell>
        <mxCell id="1DaiOdLd6T580_-Mj7Hy-27" value="interpreter" style="text;html=1;strokeColor=none;fillColor=none;align=center;verticalAlign=middle;whiteSpace=wrap;rounded=0;fontSize=14;" parent="1" vertex="1">
          <mxGeometry x="880" y="440" width="60" height="30" as="geometry" />
        </mxCell>
        <mxCell id="1DaiOdLd6T580_-Mj7Hy-28" value="folder" style="rounded=0;whiteSpace=wrap;html=1;verticalAlign=bottom;align=right;" parent="1" vertex="1">
          <mxGeometry x="850" y="210" width="120" height="90" as="geometry" />
        </mxCell>
        <mxCell id="1DaiOdLd6T580_-Mj7Hy-29" value="working directory" style="text;html=1;strokeColor=none;fillColor=none;align=center;verticalAlign=middle;whiteSpace=wrap;rounded=0;fontSize=14;" parent="1" vertex="1">
          <mxGeometry x="880" y="240" width="60" height="30" as="geometry" />
        </mxCell>
        <mxCell id="1DaiOdLd6T580_-Mj7Hy-31" value="volume&lt;br&gt;mount" style="text;html=1;strokeColor=none;fillColor=none;align=left;verticalAlign=middle;whiteSpace=wrap;rounded=0;" parent="1" vertex="1">
          <mxGeometry x="920" y="330" width="60" height="30" as="geometry" />
        </mxCell>
        <mxCell id="6ENJdM-MlTLPdebcYQGK-1" value="venv" style="rounded=0;whiteSpace=wrap;html=1;verticalAlign=bottom;align=right;" vertex="1" parent="1">
          <mxGeometry x="350" y="410" width="120" height="90" as="geometry" />
        </mxCell>
        <mxCell id="6ENJdM-MlTLPdebcYQGK-2" value="LLM service" style="text;html=1;strokeColor=none;fillColor=none;align=center;verticalAlign=middle;whiteSpace=wrap;rounded=0;fontSize=14;" vertex="1" parent="1">
          <mxGeometry x="380" y="440" width="60" height="30" as="geometry" />
        </mxCell>
        <mxCell id="6ENJdM-MlTLPdebcYQGK-3" value="FastAPI" style="text;html=1;strokeColor=none;fillColor=none;align=center;verticalAlign=middle;whiteSpace=wrap;rounded=0;" vertex="1" parent="1">
          <mxGeometry x="380" y="500" width="60" height="30" as="geometry" />
        </mxCell>
        <mxCell id="6ENJdM-MlTLPdebcYQGK-4" style="edgeStyle=orthogonalEdgeStyle;rounded=0;orthogonalLoop=1;jettySize=auto;html=1;entryX=0.5;entryY=0;entryDx=0;entryDy=0;startArrow=classic;startFill=1;exitX=0;exitY=0.5;exitDx=0;exitDy=0;" edge="1" parent="1" source="1DaiOdLd6T580_-Mj7Hy-11" target="6ENJdM-MlTLPdebcYQGK-1">
          <mxGeometry relative="1" as="geometry">
            <mxPoint x="630" y="265" as="sourcePoint" />
            <mxPoint x="720" y="420" as="targetPoint" />
          </mxGeometry>
        </mxCell>
        <mxCell id="6ENJdM-MlTLPdebcYQGK-5" value="websocket" style="text;html=1;strokeColor=none;fillColor=none;align=center;verticalAlign=middle;whiteSpace=wrap;rounded=0;" vertex="1" parent="1">
          <mxGeometry x="390" y="230" width="120" height="30" as="geometry" />
        </mxCell>
      </root>
    </mxGraphModel>
  </diagram>
</mxfile>
